<svg width="99" height="11" fill="none" xmlns="http://www.w3.org/2000/svg"><path d="M7.964 7.667c0 .362-.068.675-.203.937a2.034 2.034 0 01-.531.668c-.223.184-.481.335-.774.453-.288.113-.59.203-.904.268-.315.066-.632.11-.95.131a11.345 11.345 0 01-1.73 0 8.291 8.291 0 01-1.718-.288 5.064 5.064 0 01-.793-.308L.347 1.086c.245-.1.505-.19.78-.269a7.82 7.82 0 01.84-.203 8.47 8.47 0 01.858-.125 7.55 7.55 0 011.763.013c.32.04.625.105.918.197.293.092.566.212.82.36.253.145.473.324.661.538.192.214.341.463.446.747.11.284.164.612.164.983 0 .245-.035.475-.105.689a1.91 1.91 0 01-.302.576c-.13.17-.29.317-.478.44-.188.118-.4.205-.636.262.284.074.542.183.774.328.235.144.434.319.596.524.166.205.293.437.38.695.092.258.138.533.138.826zM4.634 3.93a.614.614 0 00-.079-.32.742.742 0 00-.446-.347.83.83 0 00-.235-.04.844.844 0 00-.256.039 2.307 2.307 0 00-.242.092l-.04 1.455c.1 0 .225-.009.374-.026a1.57 1.57 0 00.426-.112.962.962 0 00.354-.262c.096-.118.144-.278.144-.479zm-.93 2.137c-.127 0-.25.013-.368.04L3.31 7.6c.066.013.129.026.19.04.066.008.129.012.19.012.092 0 .192-.008.302-.026A.978.978 0 004.3 7.51a.722.722 0 00.334-.642.756.756 0 00-.098-.406.751.751 0 00-.53-.36 1.546 1.546 0 00-.303-.034zM15.5 4.704c0 .38-.026.76-.078 1.14-.747.048-1.49.127-2.229.236l-2.215.315c.114.315.29.566.53.754.245.188.536.282.873.282.174 0 .364-.033.57-.099.21-.065.417-.146.623-.242.205-.1.402-.208.59-.321.187-.114.349-.217.484-.308l-.314 2.975c-.17.131-.356.243-.557.335a3.694 3.694 0 01-.617.222 4.71 4.71 0 01-.648.125c-.219.026-.433.04-.643.04-.432 0-.828-.06-1.186-.178a3.597 3.597 0 01-.977-.491 3.766 3.766 0 01-.76-.754 4.386 4.386 0 01-.544-.944 5.45 5.45 0 01-.328-1.081 6.002 6.002 0 01-.111-1.154c0-.406.037-.813.111-1.22a6.23 6.23 0 01.334-1.172c.153-.376.344-.724.57-1.043.232-.323.501-.605.807-.845.306-.24.651-.428 1.036-.564A3.883 3.883 0 0112.106.51c.39 0 .743.055 1.062.164.324.105.61.253.859.446.253.187.472.413.655.675.188.262.341.55.459.865.122.31.212.64.269.99.06.345.091.697.091 1.055zm-2.621-.34c0-.123-.013-.248-.04-.375a1.14 1.14 0 00-.13-.353.719.719 0 00-.23-.256.597.597 0 00-.36-.105.784.784 0 00-.466.144c-.131.092-.245.21-.34.354-.097.14-.176.293-.237.459a3.49 3.49 0 00-.137.459l1.94-.184v-.144zm9.772 2.28c0 .599-.104 1.117-.314 1.553a2.95 2.95 0 01-.852 1.075c-.358.28-.78.488-1.265.623-.48.131-.999.197-1.554.197-.214 0-.45-.029-.708-.085a9.32 9.32 0 01-.773-.21c-.262-.088-.516-.18-.76-.275-.24-.101-.455-.195-.643-.282l.289-2.57c.371.223.782.394 1.232.512a5.501 5.501 0 001.639.163c.118-.008.23-.028.334-.059a.759.759 0 00.275-.15c.075-.066.112-.16.112-.282a.298.298 0 00-.079-.21.536.536 0 00-.203-.144 1.065 1.065 0 00-.282-.085 2.627 2.627 0 00-.308-.046 3.264 3.264 0 00-.282-.013h-.21c-.376 0-.719-.06-1.029-.177a2.35 2.35 0 01-.793-.498 2.31 2.31 0 01-.511-.787 2.781 2.781 0 01-.184-1.03c0-.515.103-.976.308-1.382.21-.41.488-.758.833-1.042.35-.289.75-.51 1.2-.662a4.31 4.31 0 011.396-.23c.214 0 .434.01.662.027a6.35 6.35 0 011.337.23c.214.06.417.137.61.228l-.25 2.662c-.297-.101-.61-.184-.937-.25a4.49 4.49 0 00-1.455-.078 2.421 2.421 0 00-.295.046c-.1.022-.19.052-.269.091a.489.489 0 00-.19.145.312.312 0 00-.066.216c.005.096.04.17.105.223.07.052.158.092.262.118.11.022.228.033.354.033.131 0 .26-.003.387-.007.127-.009.245-.015.354-.02.11-.008.199-.01.269-.006.35.022.664.096.944.223.28.126.515.295.707.504.197.21.346.461.446.754.105.288.157.607.157.957zm7.21-5.886l-.065 2.78-1.953.078-.236 6.082-2.766.145-.25-6.083-1.953.105.08-3.094 7.144-.013zm45.345 3.199c0 .424-.063.8-.19 1.127a2.796 2.796 0 01-.524.865 3.087 3.087 0 01-.774.623 5.224 5.224 0 01-.957.413 6.775 6.775 0 01-1.049.236 8.983 8.983 0 01-1.068.079v2.792h-3.054V8.637c.004-.472.006-.94.006-1.403.005-.468.007-.937.007-1.41l.013-1.46c.008-.534.01-1.067.006-1.6a28.51 28.51 0 01.033-1.613 11.773 11.773 0 013.408-.498c.337 0 .673.029 1.01.085.336.053.657.138.963.256.31.118.597.267.86.446.266.175.495.384.687.629.193.245.343.524.453.839.113.315.17.664.17 1.049zm-2.91.223c0-.284-.088-.505-.262-.662-.17-.162-.394-.243-.669-.243-.092 0-.188.009-.288.026-.097.013-.188.03-.276.053l-.078 1.914c.06.008.12.013.177.013h.177c.157 0 .308-.026.452-.079.148-.052.28-.127.393-.223.114-.1.203-.216.269-.347a.972.972 0 00.105-.452zm9.032 2.346l-.275 2.91-5.52.433.21-9.36h3.409l-.485 6.017h2.66zm8.573 2.91l-3.25.42-.394-1.482h-1.495l-.327 1.482-3.343-.328 2.609-8.73 3.644-.184 2.556 8.822zm-3.88-3.067l-.498-2.281-.485 2.28h.983zm12.152.314c0 .494-.006.984-.02 1.469-.008.48-.024.965-.045 1.455l-3.776-.066c.131-.773.245-1.545.341-2.314a18.96 18.96 0 00.144-2.34 8.945 8.945 0 00-.092-1.192 2.719 2.719 0 00-.098-.466c-.04-.14-.09-.253-.15-.34-.057-.092-.127-.138-.21-.138a.574.574 0 00-.38.13 1.09 1.09 0 00-.256.342 2.175 2.175 0 00-.157.458c-.04.17-.07.341-.092.512-.018.17-.03.332-.04.485-.004.148-.006.27-.006.367-.022.773-.04 1.542-.053 2.307-.013.76-.03 1.53-.052 2.307l-3.343.144c.088-1.542.17-3.076.25-4.6.082-1.526.148-3.06.196-4.602l3.094-.158-.027 1.05c.123-.15.254-.29.394-.42a2.56 2.56 0 01.458-.335c.162-.096.333-.17.512-.222a1.94 1.94 0 01.577-.086c.371 0 .697.062.976.184.28.122.52.288.721.498.201.21.37.459.505.747.135.284.245.588.328.911.083.324.146.662.19 1.016.043.35.072.695.085 1.036.017.34.026.67.026.99v.871z" fill="#333"/><path d="M39.8.758l-.066 2.78-1.953.078-.236 6.082-2.767.145-.249-6.083-1.953.105.079-3.094 7.144-.013zm8.343 4.221c0 .398-.046.782-.137 1.154a4.426 4.426 0 01-.4 1.035c-.17.324-.38.62-.63.892a4.092 4.092 0 01-1.835 1.14 4.133 4.133 0 01-1.153.158 4.156 4.156 0 01-2.124-.57 4.256 4.256 0 01-.846-.656 4.356 4.356 0 01-.642-.852 4.663 4.663 0 01-.413-1.01 4.523 4.523 0 01-.006-2.235c.091-.367.222-.712.393-1.035a4.56 4.56 0 01.63-.892 4.17 4.17 0 01.818-.701c.306-.197.636-.35.99-.459A3.78 3.78 0 0143.91.784c.634 0 1.21.099 1.73.295a3.7 3.7 0 012.196 2.17 4.64 4.64 0 01.308 1.73zm-2.91.17c0-.187-.028-.369-.085-.543a1.41 1.41 0 00-.236-.472 1.165 1.165 0 00-.393-.335 1.051 1.051 0 00-.531-.13c-.206 0-.39.036-.551.11a1.275 1.275 0 00-.682.761c-.06.17-.091.352-.091.544 0 .184.026.367.078.55.053.184.131.35.236.499.105.148.234.269.387.36.157.092.339.138.544.138.205 0 .389-.04.55-.118.167-.083.306-.192.42-.328.114-.14.201-.3.262-.478.061-.18.092-.365.092-.557zM56.415.772a129.2 129.2 0 00-.505 4.595 474.46 474.46 0 00-.4 4.595l-2.687.196.118-1.01c-.087.101-.19.189-.308.263a1.801 1.801 0 01-.367.184 2.506 2.506 0 01-.406.098c-.14.017-.273.024-.4.02a2.247 2.247 0 01-.84-.17 2.92 2.92 0 01-.72-.447 3.647 3.647 0 01-.59-.648 4.785 4.785 0 01-.446-.78 4.959 4.959 0 01-.275-.84 3.917 3.917 0 01-.092-.825c0-.394.007-.8.02-1.22a24.894 24.894 0 01.236-2.53c.065-.415.146-.812.242-1.192.533.026 1.069.05 1.606.072.538.022 1.073.028 1.606.02l-.301 1.146c-.097.38-.184.765-.263 1.154-.078.385-.142.771-.19 1.16a9.603 9.603 0 00-.072 1.18c0 .092.005.223.013.393.009.17.03.339.066.505.04.166.096.312.17.44a.37.37 0 00.328.183c.166 0 .315-.07.446-.21.13-.144.247-.337.347-.577.1-.24.186-.518.256-.832.074-.315.135-.643.183-.984.053-.345.094-.692.125-1.042.03-.35.052-.677.065-.983.018-.31.029-.588.033-.832.009-.245.013-.435.013-.57A4.832 4.832 0 0053.4.77a55.85 55.85 0 001.691.026h.655a17.1 17.1 0 00.67-.026zm8.075 2.91c0 .341-.03.651-.091.931a2.719 2.719 0 01-.276.76c-.127.232-.29.446-.491.643a4.37 4.37 0 01-.728.564l1.56 2.779-2.95.576-1.009-2.792-.813.026-.118 2.727h-2.818c.022-.996.041-1.988.059-2.976.022-.987.046-1.98.072-2.975l.026-1.495c.009-.494.026-.992.053-1.494a8.002 8.002 0 011.796-.452 9.05 9.05 0 01.91-.086c.31-.017.628-.026.951-.026.498 0 .979.07 1.442.21.468.135.88.34 1.239.616.358.275.644.618.858 1.029.219.41.328.89.328 1.435zm-2.936.21c0-.183-.026-.352-.079-.505a1.027 1.027 0 00-.223-.393.94.94 0 00-.367-.262 1.227 1.227 0 00-.511-.098c-.087 0-.173.006-.256.02a1.485 1.485 0 00-.242.045l-.105 2.439h.157c.188 0 .378-.025.57-.073.197-.048.372-.122.525-.222.157-.1.284-.23.38-.387.1-.157.15-.345.15-.564z" fill="#EC1F46"/></svg>