<svg width="16" height="16" viewBox="0 0 16 16" fill="none" xmlns="http://www.w3.org/2000/svg">
<path fill-rule="evenodd" clip-rule="evenodd" d="M7.3335 2.66666C4.75617 2.66666 2.66683 4.756 2.66683 7.33333C2.66683 9.91066 4.75617 12 7.3335 12C9.91083 12 12.0002 9.91066 12.0002 7.33333C12.0002 4.756 9.91083 2.66666 7.3335 2.66666ZM1.3335 7.33333C1.3335 4.01962 4.01979 1.33333 7.3335 1.33333C10.6472 1.33333 13.3335 4.01962 13.3335 7.33333C13.3335 10.647 10.6472 13.3333 7.3335 13.3333C4.01979 13.3333 1.3335 10.647 1.3335 7.33333Z" fill="white"/>
<path fill-rule="evenodd" clip-rule="evenodd" d="M10.6284 10.6286C10.8887 10.3682 11.3108 10.3682 11.5712 10.6286L14.4712 13.5286C14.7315 13.7889 14.7315 14.2111 14.4712 14.4714C14.2108 14.7318 13.7887 14.7318 13.5284 14.4714L10.6284 11.5714C10.368 11.3111 10.368 10.8889 10.6284 10.6286Z" fill="white"/>
</svg>
